<svg width="414" height="330" viewBox="0 0 414 330" fill="none" xmlns="http://www.w3.org/2000/svg">
<path d="M1.23962e-05 275.297L1.48361e-05 329.482L50.9822 329.482L50.9822 275.297L1.23962e-05 275.297Z" fill="black" fill-opacity="0.02"/>
<path d="M1.23227e-05 137.648L1.48361e-05 191.834L50.9822 191.834L50.9822 137.648L1.23227e-05 137.648Z" fill="black" fill-opacity="0.02"/>
<path d="M1.23227e-05 1.75672e-05L1.48361e-05 54.1853L50.9822 54.1853L50.9822 1.54671e-05L1.23227e-05 1.75672e-05Z" fill="black" fill-opacity="0.02"/>
<path d="M72.6082 275.297L72.6082 329.482L123.59 329.482L123.59 275.297L72.6082 275.297Z" fill="black" fill-opacity="0.02"/>
<path d="M72.6082 137.647L72.6082 191.833L123.59 191.833L123.59 137.647L72.6082 137.647Z" fill="black" fill-opacity="0.02"/>
<path d="M145.193 137.647L145.193 191.833L196.175 191.833L196.175 137.647L145.193 137.647Z" fill="black" fill-opacity="0.02"/>
<path d="M145.193 0.000139637L145.193 54.1854L196.175 54.1854L196.175 0.000137537L145.193 0.000139637Z" fill="black" fill-opacity="0.02"/>
<path d="M217.801 275.297L217.801 329.482L268.784 329.482L268.784 275.297L217.801 275.297Z" fill="black" fill-opacity="0.02"/>
<path d="M217.801 0.000139637L217.801 54.1854L268.784 54.1854L268.784 0.000137537L217.801 0.000139637Z" fill="black" fill-opacity="0.02"/>
<path d="M290.41 275.297L290.41 329.482L341.392 329.482L341.392 275.297L290.41 275.297Z" fill="black" fill-opacity="0.02"/>
<path d="M290.41 137.647L290.41 191.833L341.392 191.833L341.392 137.647L290.41 137.647Z" fill="black" fill-opacity="0.02"/>
<path d="M363.018 275.297L363.018 329.482L414 329.482L414 275.297L363.018 275.297Z" fill="black" fill-opacity="0.02"/>
<path d="M363.018 137.647L363.018 191.833L414 191.833L414 137.647L363.018 137.647Z" fill="black" fill-opacity="0.02"/>
<path d="M363.018 0.000261708L363.018 54.1856L414 54.1856L414 0.000259608L363.018 0.000261708Z" fill="black" fill-opacity="0.02"/>
</svg>
